  0
SECTION
  2
HEADER
  9
$ACADVER
  1
AC1009
  9
$FILLMODE
 70
 0
  9
$SPLFRAME
 70
 1
  9
$EXTMIN
 10
0
 20
0
 30
0.0
  9
$EXTMAX
 10
1058.33
 20
1058.33
 30
0.0
  0
ENDSEC
  0
SECTION
  2
TABLES
  0
TABLE
  2
LAYER
 70
1
  0
LAYER
  2
0
 70
     0
 62
     7
  6
CONTINUOUS
  0
ENDTAB
  0
ENDSEC
  0
SECTION
  2
ENTITIES
  0
LINE
  8
0
 62
     0
 10
267.873
 20
40.9924
 30
0.0
 11
264.371
 21
40.9924
 31
0.0
  0
LINE
  8
0
 62
     0
 10
264.371
 20
40.9924
 30
0.0
 11
263.599
 21
40.87
 31
0.0
  0
LINE
  8
0
 62
     0
 10
263.599
 20
40.87
 30
0.0
 11
262.903
 21
40.5158
 31
0.0
  0
LINE
  8
0
 62
     0
 10
262.903
 20
40.5158
 30
0.0
 11
262.35
 21
39.963
 31
0.0
  0
LINE
  8
0
 62
     0
 10
262.35
 20
39.963
 30
0.0
 11
261.994
 21
39.2673
 31
0.0
  0
LINE
  8
0
 62
     0
 10
261.994
 20
39.2673
 30
0.0
 11
261.873
 21
38.4941
 31
0.0
  0
LINE
  8
0
 62
     0
 10
261.873
 20
38.4941
 30
0.0
 11
261.994
 21
37.7197
 31
0.0
  0
LINE
  8
0
 62
     0
 10
261.994
 20
37.7197
 30
0.0
 11
262.35
 21
37.0237
 31
0.0
  0
LINE
  8
0
 62
     0
 10
262.35
 20
37.0237
 30
0.0
 11
262.903
 21
36.4712
 31
0.0
  0
LINE
  8
0
 62
     0
 10
262.903
 20
36.4712
 30
0.0
 11
263.599
 21
36.1156
 31
0.0
  0
LINE
  8
0
 62
     0
 10
263.599
 20
36.1156
 30
0.0
 11
264.371
 21
35.9929
 31
0.0
  0
LINE
  8
0
 62
     0
 10
264.371
 20
35.9929
 30
0.0
 11
267.873
 21
35.9929
 31
0.0
  0
LINE
  8
0
 62
     0
 10
267.873
 20
35.9929
 30
0.0
 11
267.873
 21
0.230132
 31
0.0
  0
LINE
  8
0
 62
     0
 10
267.873
 20
0.230132
 30
0.0
 11
0.0950846
 21
0.230132
 31
0.0
  0
LINE
  8
0
 62
     0
 10
0.0950846
 20
0.230132
 30
0.0
 11
0.0950846
 21
35.9929
 31
0.0
  0
LINE
  8
0
 62
     0
 10
0.0950846
 20
35.9929
 30
0.0
 11
3.59392
 21
35.9929
 31
0.0
  0
LINE
  8
0
 62
     0
 10
3.59392
 20
35.9929
 30
0.0
 11
4.367
 21
36.1156
 31
0.0
  0
LINE
  8
0
 62
     0
 10
4.367
 20
36.1156
 30
0.0
 11
5.06293
 21
36.4712
 31
0.0
  0
LINE
  8
0
 62
     0
 10
5.06293
 20
36.4712
 30
0.0
 11
5.61689
 21
37.0237
 31
0.0
  0
LINE
  8
0
 62
     0
 10
5.61689
 20
37.0237
 30
0.0
 11
5.97105
 21
37.7197
 31
0.0
  0
LINE
  8
0
 62
     0
 10
5.97105
 20
37.7197
 30
0.0
 11
6.09505
 21
38.4926
 31
0.0
  0
LINE
  8
0
 62
     0
 10
6.09505
 20
38.4926
 30
0.0
 11
5.97105
 21
39.2673
 31
0.0
  0
LINE
  8
0
 62
     0
 10
5.97105
 20
39.2673
 30
0.0
 11
5.61689
 21
39.963
 31
0.0
  0
LINE
  8
0
 62
     0
 10
5.61689
 20
39.963
 30
0.0
 11
5.06293
 21
40.5158
 31
0.0
  0
LINE
  8
0
 62
     0
 10
5.06293
 20
40.5158
 30
0.0
 11
4.71428
 21
40.6936
 31
0.0
  0
LINE
  8
0
 62
     0
 10
4.71428
 20
40.6936
 30
0.0
 11
16.4317
 21
40.6936
 31
0.0
  0
LINE
  8
0
 62
     0
 10
16.4317
 20
40.6936
 30
0.0
 11
16.4317
 21
54.6929
 31
0.0
  0
LINE
  8
0
 62
     0
 10
16.4317
 20
54.6929
 30
0.0
 11
2.43086
 21
54.6929
 31
0.0
  0
LINE
  8
0
 62
     0
 10
2.43086
 20
54.6929
 30
0.0
 11
2.43086
 21
40.9924
 31
0.0
  0
LINE
  8
0
 62
     0
 10
2.43086
 20
40.9924
 30
0.0
 11
0.0950846
 21
40.9924
 31
0.0
  0
LINE
  8
0
 62
     0
 10
0.0950846
 20
40.9924
 30
0.0
 11
0.0950846
 21
95.1548
 31
0.0
  0
LINE
  8
0
 62
     0
 10
0.0950846
 20
95.1548
 30
0.0
 11
267.873
 21
95.1548
 31
0.0
  0
LINE
  8
0
 62
     0
 10
267.873
 20
95.1548
 30
0.0
 11
267.873
 21
40.9924
 31
0.0
  0
LINE
  8
0
 62
     0
 10
123.876
 20
16.593
 30
0.0
 11
123.876
 21
11.8938
 31
0.0
  0
LINE
  8
0
 62
     0
 10
123.876
 20
11.8938
 30
0.0
 11
122.35
 21
11.8938
 31
0.0
  0
LINE
  8
0
 62
     0
 10
122.35
 20
11.8938
 30
0.0
 11
122.35
 21
15.124
 31
0.0
  0
LINE
  8
0
 62
     0
 10
122.35
 20
15.124
 30
0.0
 11
120.625
 21
15.124
 31
0.0
  0
LINE
  8
0
 62
     0
 10
120.625
 20
15.124
 30
0.0
 11
120.625
 21
16.0431
 31
0.0
  0
LINE
  8
0
 62
     0
 10
120.625
 20
16.0431
 30
0.0
 11
117.325
 21
16.0431
 31
0.0
  0
LINE
  8
0
 62
     0
 10
117.325
 20
16.0431
 30
0.0
 11
117.325
 21
15.124
 31
0.0
  0
LINE
  8
0
 62
     0
 10
117.325
 20
15.124
 30
0.0
 11
115.601
 21
15.124
 31
0.0
  0
LINE
  8
0
 62
     0
 10
115.601
 20
15.124
 30
0.0
 11
115.601
 21
11.8938
 31
0.0
  0
LINE
  8
0
 62
     0
 10
115.601
 20
11.8938
 30
0.0
 11
114.776
 21
11.8938
 31
0.0
  0
LINE
  8
0
 62
     0
 10
114.776
 20
11.8938
 30
0.0
 11
114.776
 21
9.09366
 31
0.0
  0
LINE
  8
0
 62
     0
 10
114.776
 20
9.09366
 30
0.0
 11
115.601
 21
9.09366
 31
0.0
  0
LINE
  8
0
 62
     0
 10
115.601
 20
9.09366
 30
0.0
 11
115.601
 21
2.8236
 31
0.0
  0
LINE
  8
0
 62
     0
 10
115.601
 20
2.8236
 30
0.0
 11
117.325
 21
2.8236
 31
0.0
  0
LINE
  8
0
 62
     0
 10
117.325
 20
2.8236
 30
0.0
 11
117.325
 21
1.84381
 31
0.0
  0
LINE
  8
0
 62
     0
 10
117.325
 20
1.84381
 30
0.0
 11
120.625
 21
1.84381
 31
0.0
  0
LINE
  8
0
 62
     0
 10
120.625
 20
1.84381
 30
0.0
 11
120.625
 21
2.8236
 31
0.0
  0
LINE
  8
0
 62
     0
 10
120.625
 20
2.8236
 30
0.0
 11
122.35
 21
2.8236
 31
0.0
  0
LINE
  8
0
 62
     0
 10
122.35
 20
2.8236
 30
0.0
 11
122.35
 21
7.29396
 31
0.0
  0
LINE
  8
0
 62
     0
 10
122.35
 20
7.29396
 30
0.0
 11
123.876
 21
7.29396
 31
0.0
  0
LINE
  8
0
 62
     0
 10
123.876
 20
7.29396
 30
0.0
 11
123.876
 21
2.59347
 31
0.0
  0
LINE
  8
0
 62
     0
 10
123.876
 20
2.59347
 30
0.0
 11
137.875
 21
2.59347
 31
0.0
  0
LINE
  8
0
 62
     0
 10
137.875
 20
2.59347
 30
0.0
 11
137.875
 21
7.29396
 31
0.0
  0
LINE
  8
0
 62
     0
 10
137.875
 20
7.29396
 30
0.0
 11
139.401
 21
7.29396
 31
0.0
  0
LINE
  8
0
 62
     0
 10
139.401
 20
7.29396
 30
0.0
 11
139.401
 21
2.8236
 31
0.0
  0
LINE
  8
0
 62
     0
 10
139.401
 20
2.8236
 30
0.0
 11
141.125
 21
2.8236
 31
0.0
  0
LINE
  8
0
 62
     0
 10
141.125
 20
2.8236
 30
0.0
 11
141.125
 21
1.84381
 31
0.0
  0
LINE
  8
0
 62
     0
 10
141.125
 20
1.84381
 30
0.0
 11
144.424
 21
1.84381
 31
0.0
  0
LINE
  8
0
 62
     0
 10
144.424
 20
1.84381
 30
0.0
 11
144.424
 21
2.8236
 31
0.0
  0
LINE
  8
0
 62
     0
 10
144.424
 20
2.8236
 30
0.0
 11
146.151
 21
2.8236
 31
0.0
  0
LINE
  8
0
 62
     0
 10
146.151
 20
2.8236
 30
0.0
 11
146.151
 21
9.09366
 31
0.0
  0
LINE
  8
0
 62
     0
 10
146.151
 20
9.09366
 30
0.0
 11
146.976
 21
9.09366
 31
0.0
  0
LINE
  8
0
 62
     0
 10
146.976
 20
9.09366
 30
0.0
 11
146.976
 21
11.8938
 31
0.0
  0
LINE
  8
0
 62
     0
 10
146.976
 20
11.8938
 30
0.0
 11
146.151
 21
11.8938
 31
0.0
  0
LINE
  8
0
 62
     0
 10
146.151
 20
11.8938
 30
0.0
 11
146.151
 21
15.124
 31
0.0
  0
LINE
  8
0
 62
     0
 10
146.151
 20
15.124
 30
0.0
 11
144.424
 21
15.124
 31
0.0
  0
LINE
  8
0
 62
     0
 10
144.424
 20
15.124
 30
0.0
 11
144.424
 21
16.0431
 31
0.0
  0
LINE
  8
0
 62
     0
 10
144.424
 20
16.0431
 30
0.0
 11
141.125
 21
16.0431
 31
0.0
  0
LINE
  8
0
 62
     0
 10
141.125
 20
16.0431
 30
0.0
 11
141.125
 21
15.124
 31
0.0
  0
LINE
  8
0
 62
     0
 10
141.125
 20
15.124
 30
0.0
 11
139.401
 21
15.124
 31
0.0
  0
LINE
  8
0
 62
     0
 10
139.401
 20
15.124
 30
0.0
 11
139.401
 21
11.8938
 31
0.0
  0
LINE
  8
0
 62
     0
 10
139.401
 20
11.8938
 30
0.0
 11
137.875
 21
11.8938
 31
0.0
  0
LINE
  8
0
 62
     0
 10
137.875
 20
11.8938
 30
0.0
 11
137.875
 21
16.593
 31
0.0
  0
LINE
  8
0
 62
     0
 10
137.875
 20
16.593
 30
0.0
 11
123.876
 21
16.593
 31
0.0
  0
LINE
  8
0
 62
     0
 10
2.43086
 20
16.593
 30
0.0
 11
16.4317
 21
16.593
 31
0.0
  0
LINE
  8
0
 62
     0
 10
16.4317
 20
16.593
 30
0.0
 11
16.4317
 21
2.59347
 31
0.0
  0
LINE
  8
0
 62
     0
 10
16.4317
 20
2.59347
 30
0.0
 11
2.43086
 21
2.59347
 31
0.0
  0
LINE
  8
0
 62
     0
 10
2.43086
 20
2.59347
 30
0.0
 11
2.43086
 21
16.593
 31
0.0
  0
LINE
  8
0
 62
     0
 10
23.8621
 20
16.593
 30
0.0
 11
37.8629
 21
16.593
 31
0.0
  0
LINE
  8
0
 62
     0
 10
37.8629
 20
16.593
 30
0.0
 11
37.8629
 21
2.59347
 31
0.0
  0
LINE
  8
0
 62
     0
 10
37.8629
 20
2.59347
 30
0.0
 11
23.8621
 21
2.59347
 31
0.0
  0
LINE
  8
0
 62
     0
 10
23.8621
 20
2.59347
 30
0.0
 11
23.8621
 21
16.593
 31
0.0
  0
LINE
  8
0
 62
     0
 10
45.2935
 20
16.593
 30
0.0
 11
59.2928
 21
16.593
 31
0.0
  0
LINE
  8
0
 62
     0
 10
59.2928
 20
16.593
 30
0.0
 11
59.2928
 21
2.59347
 31
0.0
  0
LINE
  8
0
 62
     0
 10
59.2928
 20
2.59347
 30
0.0
 11
45.2935
 21
2.59347
 31
0.0
  0
LINE
  8
0
 62
     0
 10
45.2935
 20
2.59347
 30
0.0
 11
45.2935
 21
16.593
 31
0.0
  0
LINE
  8
0
 62
     0
 10
66.7262
 20
16.593
 30
0.0
 11
80.7254
 21
16.593
 31
0.0
  0
LINE
  8
0
 62
     0
 10
80.7254
 20
16.593
 30
0.0
 11
80.7254
 21
2.59347
 31
0.0
  0
LINE
  8
0
 62
     0
 10
80.7254
 20
2.59347
 30
0.0
 11
66.7262
 21
2.59347
 31
0.0
  0
LINE
  8
0
 62
     0
 10
66.7262
 20
2.59347
 30
0.0
 11
66.7262
 21
16.593
 31
0.0
  0
LINE
  8
0
 62
     0
 10
90.5372
 20
16.593
 30
0.0
 11
104.538
 21
16.593
 31
0.0
  0
LINE
  8
0
 62
     0
 10
104.538
 20
16.593
 30
0.0
 11
104.538
 21
2.59347
 31
0.0
  0
LINE
  8
0
 62
     0
 10
104.538
 20
2.59347
 30
0.0
 11
90.5372
 21
2.59347
 31
0.0
  0
LINE
  8
0
 62
     0
 10
90.5372
 20
2.59347
 30
0.0
 11
90.5372
 21
16.593
 31
0.0
  0
LINE
  8
0
 62
     0
 10
154.831
 20
16.593
 30
0.0
 11
168.83
 21
16.593
 31
0.0
  0
LINE
  8
0
 62
     0
 10
168.83
 20
16.593
 30
0.0
 11
168.83
 21
2.59347
 31
0.0
  0
LINE
  8
0
 62
     0
 10
168.83
 20
2.59347
 30
0.0
 11
154.831
 21
2.59347
 31
0.0
  0
LINE
  8
0
 62
     0
 10
154.831
 20
2.59347
 30
0.0
 11
154.831
 21
16.593
 31
0.0
  0
LINE
  8
0
 62
     0
 10
181.211
 20
12.1708
 30
0.0
 11
180.513
 21
11.8153
 31
0.0
  0
LINE
  8
0
 62
     0
 10
180.513
 20
11.8153
 30
0.0
 11
179.961
 21
11.2627
 31
0.0
  0
LINE
  8
0
 62
     0
 10
179.961
 20
11.2627
 30
0.0
 11
179.607
 21
10.5654
 31
0.0
  0
LINE
  8
0
 62
     0
 10
179.607
 20
10.5654
 30
0.0
 11
179.484
 21
9.79233
 31
0.0
  0
LINE
  8
0
 62
     0
 10
179.484
 20
9.79233
 30
0.0
 11
179.607
 21
9.02063
 31
0.0
  0
LINE
  8
0
 62
     0
 10
179.607
 20
9.02063
 30
0.0
 11
179.961
 21
8.32337
 31
0.0
  0
LINE
  8
0
 62
     0
 10
179.961
 20
8.32337
 30
0.0
 11
180.513
 21
7.77074
 31
0.0
  0
LINE
  8
0
 62
     0
 10
180.513
 20
7.77074
 30
0.0
 11
181.211
 21
7.41521
 31
0.0
  0
LINE
  8
0
 62
     0
 10
181.211
 20
7.41521
 30
0.0
 11
181.984
 21
7.29259
 31
0.0
  0
LINE
  8
0
 62
     0
 10
181.984
 20
7.29259
 30
0.0
 11
182.757
 21
7.41521
 31
0.0
  0
LINE
  8
0
 62
     0
 10
182.757
 20
7.41521
 30
0.0
 11
183.454
 21
7.77074
 31
0.0
  0
LINE
  8
0
 62
     0
 10
183.454
 20
7.77074
 30
0.0
 11
184.007
 21
8.32337
 31
0.0
  0
LINE
  8
0
 62
     0
 10
184.007
 20
8.32337
 30
0.0
 11
184.361
 21
9.02063
 31
0.0
  0
LINE
  8
0
 62
     0
 10
184.361
 20
9.02063
 30
0.0
 11
184.483
 21
9.79233
 31
0.0
  0
LINE
  8
0
 62
     0
 10
184.483
 20
9.79233
 30
0.0
 11
184.361
 21
10.5654
 31
0.0
  0
LINE
  8
0
 62
     0
 10
184.361
 20
10.5654
 30
0.0
 11
184.007
 21
11.2627
 31
0.0
  0
LINE
  8
0
 62
     0
 10
184.007
 20
11.2627
 30
0.0
 11
183.454
 21
11.8153
 31
0.0
  0
LINE
  8
0
 62
     0
 10
183.454
 20
11.8153
 30
0.0
 11
182.757
 21
12.1708
 31
0.0
  0
LINE
  8
0
 62
     0
 10
182.757
 20
12.1708
 30
0.0
 11
181.984
 21
12.2921
 31
0.0
  0
LINE
  8
0
 62
     0
 10
181.984
 20
12.2921
 30
0.0
 11
181.211
 21
12.1708
 31
0.0
  0
LINE
  8
0
 62
     0
 10
33.3871
 20
35.6429
 30
0.0
 11
33.3871
 21
30.9438
 31
0.0
  0
LINE
  8
0
 62
     0
 10
33.3871
 20
30.9438
 30
0.0
 11
31.863
 21
30.9438
 31
0.0
  0
LINE
  8
0
 62
     0
 10
31.863
 20
30.9438
 30
0.0
 11
31.863
 21
34.174
 31
0.0
  0
LINE
  8
0
 62
     0
 10
31.863
 20
34.174
 30
0.0
 11
30.1363
 21
34.174
 31
0.0
  0
LINE
  8
0
 62
     0
 10
30.1363
 20
34.174
 30
0.0
 11
30.1363
 21
35.0931
 31
0.0
  0
LINE
  8
0
 62
     0
 10
30.1363
 20
35.0931
 30
0.0
 11
26.8359
 21
35.0931
 31
0.0
  0
LINE
  8
0
 62
     0
 10
26.8359
 20
35.0931
 30
0.0
 11
26.8359
 21
34.174
 31
0.0
  0
LINE
  8
0
 62
     0
 10
26.8359
 20
34.174
 30
0.0
 11
25.112
 21
34.174
 31
0.0
  0
LINE
  8
0
 62
     0
 10
25.112
 20
34.174
 30
0.0
 11
25.112
 21
30.9438
 31
0.0
  0
LINE
  8
0
 62
     0
 10
25.112
 20
30.9438
 30
0.0
 11
24.2879
 21
30.9438
 31
0.0
  0
LINE
  8
0
 62
     0
 10
24.2879
 20
30.9438
 30
0.0
 11
24.2879
 21
28.1437
 31
0.0
  0
LINE
  8
0
 62
     0
 10
24.2879
 20
28.1437
 30
0.0
 11
25.112
 21
28.1437
 31
0.0
  0
LINE
  8
0
 62
     0
 10
25.112
 20
28.1437
 30
0.0
 11
25.112
 21
21.8736
 31
0.0
  0
LINE
  8
0
 62
     0
 10
25.112
 20
21.8736
 30
0.0
 11
26.8359
 21
21.8736
 31
0.0
  0
LINE
  8
0
 62
     0
 10
26.8359
 20
21.8736
 30
0.0
 11
26.8359
 21
20.8938
 31
0.0
  0
LINE
  8
0
 62
     0
 10
26.8359
 20
20.8938
 30
0.0
 11
30.1363
 21
20.8938
 31
0.0
  0
LINE
  8
0
 62
     0
 10
30.1363
 20
20.8938
 30
0.0
 11
30.1363
 21
21.8736
 31
0.0
  0
LINE
  8
0
 62
     0
 10
30.1363
 20
21.8736
 30
0.0
 11
31.863
 21
21.8736
 31
0.0
  0
LINE
  8
0
 62
     0
 10
31.863
 20
21.8736
 30
0.0
 11
31.863
 21
26.344
 31
0.0
  0
LINE
  8
0
 62
     0
 10
31.863
 20
26.344
 30
0.0
 11
33.3871
 21
26.344
 31
0.0
  0
LINE
  8
0
 62
     0
 10
33.3871
 20
26.344
 30
0.0
 11
33.3871
 21
21.6435
 31
0.0
  0
LINE
  8
0
 62
     0
 10
33.3871
 20
21.6435
 30
0.0
 11
47.3865
 21
21.6435
 31
0.0
  0
LINE
  8
0
 62
     0
 10
47.3865
 20
21.6435
 30
0.0
 11
47.3865
 21
26.344
 31
0.0
  0
LINE
  8
0
 62
     0
 10
47.3865
 20
26.344
 30
0.0
 11
48.9119
 21
26.344
 31
0.0
  0
LINE
  8
0
 62
     0
 10
48.9119
 20
26.344
 30
0.0
 11
48.9119
 21
21.8736
 31
0.0
  0
LINE
  8
0
 62
     0
 10
48.9119
 20
21.8736
 30
0.0
 11
50.636
 21
21.8736
 31
0.0
  0
LINE
  8
0
 62
     0
 10
50.636
 20
21.8736
 30
0.0
 11
50.636
 21
20.8938
 31
0.0
  0
LINE
  8
0
 62
     0
 10
50.636
 20
20.8938
 30
0.0
 11
53.938
 21
20.8938
 31
0.0
  0
LINE
  8
0
 62
     0
 10
53.938
 20
20.8938
 30
0.0
 11
53.938
 21
21.8736
 31
0.0
  0
LINE
  8
0
 62
     0
 10
53.938
 20
21.8736
 30
0.0
 11
55.663
 21
21.8736
 31
0.0
  0
LINE
  8
0
 62
     0
 10
55.663
 20
21.8736
 30
0.0
 11
55.663
 21
28.1437
 31
0.0
  0
LINE
  8
0
 62
     0
 10
55.663
 20
28.1437
 30
0.0
 11
56.4871
 21
28.1437
 31
0.0
  0
LINE
  8
0
 62
     0
 10
56.4871
 20
28.1437
 30
0.0
 11
56.4871
 21
30.9438
 31
0.0
  0
LINE
  8
0
 62
     0
 10
56.4871
 20
30.9438
 30
0.0
 11
55.663
 21
30.9438
 31
0.0
  0
LINE
  8
0
 62
     0
 10
55.663
 20
30.9438
 30
0.0
 11
55.663
 21
34.174
 31
0.0
  0
LINE
  8
0
 62
     0
 10
55.663
 20
34.174
 30
0.0
 11
53.938
 21
34.174
 31
0.0
  0
LINE
  8
0
 62
     0
 10
53.938
 20
34.174
 30
0.0
 11
53.938
 21
35.0931
 31
0.0
  0
LINE
  8
0
 62
     0
 10
53.938
 20
35.0931
 30
0.0
 11
50.636
 21
35.0931
 31
0.0
  0
LINE
  8
0
 62
     0
 10
50.636
 20
35.0931
 30
0.0
 11
50.636
 21
34.174
 31
0.0
  0
LINE
  8
0
 62
     0
 10
50.636
 20
34.174
 30
0.0
 11
48.9119
 21
34.174
 31
0.0
  0
LINE
  8
0
 62
     0
 10
48.9119
 20
34.174
 30
0.0
 11
48.9119
 21
30.9438
 31
0.0
  0
LINE
  8
0
 62
     0
 10
48.9119
 20
30.9438
 30
0.0
 11
47.3865
 21
30.9438
 31
0.0
  0
LINE
  8
0
 62
     0
 10
47.3865
 20
30.9438
 30
0.0
 11
47.3865
 21
35.6429
 31
0.0
  0
LINE
  8
0
 62
     0
 10
47.3865
 20
35.6429
 30
0.0
 11
33.3871
 21
35.6429
 31
0.0
  0
LINE
  8
0
 62
     0
 10
2.43086
 20
35.6429
 30
0.0
 11
16.4317
 21
35.6429
 31
0.0
  0
LINE
  8
0
 62
     0
 10
16.4317
 20
35.6429
 30
0.0
 11
16.4317
 21
21.6435
 31
0.0
  0
LINE
  8
0
 62
     0
 10
16.4317
 20
21.6435
 30
0.0
 11
2.43086
 21
21.6435
 31
0.0
  0
LINE
  8
0
 62
     0
 10
2.43086
 20
21.6435
 30
0.0
 11
2.43086
 21
35.6429
 31
0.0
  0
LINE
  8
0
 62
     0
 10
64.3449
 20
35.6429
 30
0.0
 11
78.3442
 21
35.6429
 31
0.0
  0
LINE
  8
0
 62
     0
 10
78.3442
 20
35.6429
 30
0.0
 11
78.3442
 21
21.6435
 31
0.0
  0
LINE
  8
0
 62
     0
 10
78.3442
 20
21.6435
 30
0.0
 11
64.3449
 21
21.6435
 31
0.0
  0
LINE
  8
0
 62
     0
 10
64.3449
 20
21.6435
 30
0.0
 11
64.3449
 21
35.6429
 31
0.0
  0
LINE
  8
0
 62
     0
 10
83.3949
 20
35.6429
 30
0.0
 11
97.3942
 21
35.6429
 31
0.0
  0
LINE
  8
0
 62
     0
 10
97.3942
 20
35.6429
 30
0.0
 11
97.3942
 21
21.6435
 31
0.0
  0
LINE
  8
0
 62
     0
 10
97.3942
 20
21.6435
 30
0.0
 11
83.3949
 21
21.6435
 31
0.0
  0
LINE
  8
0
 62
     0
 10
83.3949
 20
21.6435
 30
0.0
 11
83.3949
 21
35.6429
 31
0.0
  0
LINE
  8
0
 62
     0
 10
102.443
 20
35.6429
 30
0.0
 11
116.443
 21
35.6429
 31
0.0
  0
LINE
  8
0
 62
     0
 10
116.443
 20
35.6429
 30
0.0
 11
116.443
 21
21.6435
 31
0.0
  0
LINE
  8
0
 62
     0
 10
116.443
 20
21.6435
 30
0.0
 11
102.443
 21
21.6435
 31
0.0
  0
LINE
  8
0
 62
     0
 10
102.443
 20
21.6435
 30
0.0
 11
102.443
 21
35.6429
 31
0.0
  0
LINE
  8
0
 62
     0
 10
121.495
 20
35.6429
 30
0.0
 11
135.494
 21
35.6429
 31
0.0
  0
LINE
  8
0
 62
     0
 10
135.494
 20
35.6429
 30
0.0
 11
135.494
 21
21.6435
 31
0.0
  0
LINE
  8
0
 62
     0
 10
135.494
 20
21.6435
 30
0.0
 11
121.495
 21
21.6435
 31
0.0
  0
LINE
  8
0
 62
     0
 10
121.495
 20
21.6435
 30
0.0
 11
121.495
 21
35.6429
 31
0.0
  0
LINE
  8
0
 62
     0
 10
140.543
 20
35.6429
 30
0.0
 11
154.543
 21
35.6429
 31
0.0
  0
LINE
  8
0
 62
     0
 10
154.543
 20
35.6429
 30
0.0
 11
154.543
 21
21.6435
 31
0.0
  0
LINE
  8
0
 62
     0
 10
154.543
 20
21.6435
 30
0.0
 11
140.543
 21
21.6435
 31
0.0
  0
LINE
  8
0
 62
     0
 10
140.543
 20
21.6435
 30
0.0
 11
140.543
 21
35.6429
 31
0.0
  0
LINE
  8
0
 62
     0
 10
28.6246
 20
54.6929
 30
0.0
 11
42.624
 21
54.6929
 31
0.0
  0
LINE
  8
0
 62
     0
 10
42.624
 20
54.6929
 30
0.0
 11
42.624
 21
40.6936
 31
0.0
  0
LINE
  8
0
 62
     0
 10
42.624
 20
40.6936
 30
0.0
 11
28.6246
 21
40.6936
 31
0.0
  0
LINE
  8
0
 62
     0
 10
28.6246
 20
40.6936
 30
0.0
 11
28.6246
 21
54.6929
 31
0.0
  0
LINE
  8
0
 62
     0
 10
54.8171
 20
54.6929
 30
0.0
 11
68.8178
 21
54.6929
 31
0.0
  0
LINE
  8
0
 62
     0
 10
68.8178
 20
54.6929
 30
0.0
 11
68.8178
 21
40.6936
 31
0.0
  0
LINE
  8
0
 62
     0
 10
68.8178
 20
40.6936
 30
0.0
 11
54.8171
 21
40.6936
 31
0.0
  0
LINE
  8
0
 62
     0
 10
54.8171
 20
40.6936
 30
0.0
 11
54.8171
 21
54.6929
 31
0.0
  0
LINE
  8
0
 62
     0
 10
73.8685
 20
54.6929
 30
0.0
 11
87.8678
 21
54.6929
 31
0.0
  0
LINE
  8
0
 62
     0
 10
87.8678
 20
54.6929
 30
0.0
 11
87.8678
 21
40.6936
 31
0.0
  0
LINE
  8
0
 62
     0
 10
87.8678
 20
40.6936
 30
0.0
 11
73.8685
 21
40.6936
 31
0.0
  0
LINE
  8
0
 62
     0
 10
73.8685
 20
40.6936
 30
0.0
 11
73.8685
 21
54.6929
 31
0.0
  0
LINE
  8
0
 62
     0
 10
92.9185
 20
54.6929
 30
0.0
 11
106.918
 21
54.6929
 31
0.0
  0
LINE
  8
0
 62
     0
 10
106.918
 20
54.6929
 30
0.0
 11
106.918
 21
40.6936
 31
0.0
  0
LINE
  8
0
 62
     0
 10
106.918
 20
40.6936
 30
0.0
 11
92.9185
 21
40.6936
 31
0.0
  0
LINE
  8
0
 62
     0
 10
92.9185
 20
40.6936
 30
0.0
 11
92.9185
 21
54.6929
 31
0.0
  0
LINE
  8
0
 62
     0
 10
111.967
 20
54.6929
 30
0.0
 11
125.969
 21
54.6929
 31
0.0
  0
LINE
  8
0
 62
     0
 10
125.969
 20
54.6929
 30
0.0
 11
125.969
 21
40.6936
 31
0.0
  0
LINE
  8
0
 62
     0
 10
125.969
 20
40.6936
 30
0.0
 11
111.967
 21
40.6936
 31
0.0
  0
LINE
  8
0
 62
     0
 10
111.967
 20
40.6936
 30
0.0
 11
111.967
 21
54.6929
 31
0.0
  0
LINE
  8
0
 62
     0
 10
131.018
 20
54.6929
 30
0.0
 11
145.018
 21
54.6929
 31
0.0
  0
LINE
  8
0
 62
     0
 10
145.018
 20
54.6929
 30
0.0
 11
145.018
 21
40.6936
 31
0.0
  0
LINE
  8
0
 62
     0
 10
145.018
 20
40.6936
 30
0.0
 11
131.018
 21
40.6936
 31
0.0
  0
LINE
  8
0
 62
     0
 10
131.018
 20
40.6936
 30
0.0
 11
131.018
 21
54.6929
 31
0.0
  0
LINE
  8
0
 62
     0
 10
2.43086
 20
73.7429
 30
0.0
 11
2.43086
 21
59.7436
 31
0.0
  0
LINE
  8
0
 62
     0
 10
2.43086
 20
59.7436
 30
0.0
 11
16.4317
 21
59.7436
 31
0.0
  0
LINE
  8
0
 62
     0
 10
16.4317
 20
59.7436
 30
0.0
 11
16.4317
 21
64.6328
 31
0.0
  0
LINE
  8
0
 62
     0
 10
16.4317
 20
64.6328
 30
0.0
 11
16.6825
 21
64.5929
 31
0.0
  0
LINE
  8
0
 62
     0
 10
16.6825
 20
64.5929
 30
0.0
 11
17.4556
 21
64.7153
 31
0.0
  0
LINE
  8
0
 62
     0
 10
17.4556
 20
64.7153
 30
0.0
 11
18.1529
 21
65.0709
 31
0.0
  0
LINE
  8
0
 62
     0
 10
18.1529
 20
65.0709
 30
0.0
 11
18.7055
 21
65.6237
 31
0.0
  0
LINE
  8
0
 62
     0
 10
18.7055
 20
65.6237
 30
0.0
 11
19.061
 21
66.3208
 31
0.0
  0
LINE
  8
0
 62
     0
 10
19.061
 20
66.3208
 30
0.0
 11
19.1823
 21
67.0927
 31
0.0
  0
LINE
  8
0
 62
     0
 10
19.1823
 20
67.0927
 30
0.0
 11
19.061
 21
67.8656
 31
0.0
  0
LINE
  8
0
 62
     0
 10
19.061
 20
67.8656
 30
0.0
 11
18.7055
 21
68.5631
 31
0.0
  0
LINE
  8
0
 62
     0
 10
18.7055
 20
68.5631
 30
0.0
 11
18.1529
 21
69.1155
 31
0.0
  0
LINE
  8
0
 62
     0
 10
18.1529
 20
69.1155
 30
0.0
 11
17.4556
 21
69.4711
 31
0.0
  0
LINE
  8
0
 62
     0
 10
17.4556
 20
69.4711
 30
0.0
 11
16.6825
 21
69.5925
 31
0.0
  0
LINE
  8
0
 62
     0
 10
16.6825
 20
69.5925
 30
0.0
 11
16.4317
 21
69.5523
 31
0.0
  0
LINE
  8
0
 62
     0
 10
16.4317
 20
69.5523
 30
0.0
 11
16.4317
 21
73.7429
 31
0.0
  0
LINE
  8
0
 62
     0
 10
16.4317
 20
73.7429
 30
0.0
 11
2.43086
 21
73.7429
 31
0.0
  0
LINE
  8
0
 62
     0
 10
26.2434
 20
73.7429
 30
0.0
 11
40.2428
 21
73.7429
 31
0.0
  0
LINE
  8
0
 62
     0
 10
40.2428
 20
73.7429
 30
0.0
 11
40.2428
 21
59.7436
 31
0.0
  0
LINE
  8
0
 62
     0
 10
40.2428
 20
59.7436
 30
0.0
 11
26.2434
 21
59.7436
 31
0.0
  0
LINE
  8
0
 62
     0
 10
26.2434
 20
59.7436
 30
0.0
 11
26.2434
 21
73.7429
 31
0.0
  0
LINE
  8
0
 62
     0
 10
50.056
 20
73.7429
 30
0.0
 11
64.0567
 21
73.7429
 31
0.0
  0
LINE
  8
0
 62
     0
 10
64.0567
 20
73.7429
 30
0.0
 11
64.0567
 21
59.7436
 31
0.0
  0
LINE
  8
0
 62
     0
 10
64.0567
 20
59.7436
 30
0.0
 11
50.056
 21
59.7436
 31
0.0
  0
LINE
  8
0
 62
     0
 10
50.056
 20
59.7436
 30
0.0
 11
50.056
 21
73.7429
 31
0.0
  0
LINE
  8
0
 62
     0
 10
69.106
 20
73.7429
 30
0.0
 11
83.1067
 21
73.7429
 31
0.0
  0
LINE
  8
0
 62
     0
 10
83.1067
 20
73.7429
 30
0.0
 11
83.1067
 21
59.7436
 31
0.0
  0
LINE
  8
0
 62
     0
 10
83.1067
 20
59.7436
 30
0.0
 11
69.106
 21
59.7436
 31
0.0
  0
LINE
  8
0
 62
     0
 10
69.106
 20
59.7436
 30
0.0
 11
69.106
 21
73.7429
 31
0.0
  0
LINE
  8
0
 62
     0
 10
88.156
 20
73.7429
 30
0.0
 11
102.157
 21
73.7429
 31
0.0
  0
LINE
  8
0
 62
     0
 10
102.157
 20
73.7429
 30
0.0
 11
102.157
 21
59.7436
 31
0.0
  0
LINE
  8
0
 62
     0
 10
102.157
 20
59.7436
 30
0.0
 11
88.156
 21
59.7436
 31
0.0
  0
LINE
  8
0
 62
     0
 10
88.156
 20
59.7436
 30
0.0
 11
88.156
 21
73.7429
 31
0.0
  0
LINE
  8
0
 62
     0
 10
107.206
 20
73.7429
 30
0.0
 11
121.205
 21
73.7429
 31
0.0
  0
LINE
  8
0
 62
     0
 10
121.205
 20
73.7429
 30
0.0
 11
121.205
 21
59.7436
 31
0.0
  0
LINE
  8
0
 62
     0
 10
121.205
 20
59.7436
 30
0.0
 11
107.206
 21
59.7436
 31
0.0
  0
LINE
  8
0
 62
     0
 10
107.206
 20
59.7436
 30
0.0
 11
107.206
 21
73.7429
 31
0.0
  0
LINE
  8
0
 62
     0
 10
126.256
 20
73.7429
 30
0.0
 11
140.257
 21
73.7429
 31
0.0
  0
LINE
  8
0
 62
     0
 10
140.257
 20
73.7429
 30
0.0
 11
140.257
 21
59.7436
 31
0.0
  0
LINE
  8
0
 62
     0
 10
140.257
 20
59.7436
 30
0.0
 11
126.256
 21
59.7436
 31
0.0
  0
LINE
  8
0
 62
     0
 10
126.256
 20
59.7436
 30
0.0
 11
126.256
 21
73.7429
 31
0.0
  0
LINE
  8
0
 62
     0
 10
250.762
 20
69.4711
 30
0.0
 11
250.064
 21
69.1155
 31
0.0
  0
LINE
  8
0
 62
     0
 10
250.064
 20
69.1155
 30
0.0
 11
249.512
 21
68.5631
 31
0.0
  0
LINE
  8
0
 62
     0
 10
249.512
 20
68.5631
 30
0.0
 11
249.156
 21
67.8656
 31
0.0
  0
LINE
  8
0
 62
     0
 10
249.156
 20
67.8656
 30
0.0
 11
249.032
 21
67.0927
 31
0.0
  0
LINE
  8
0
 62
     0
 10
249.032
 20
67.0927
 30
0.0
 11
249.156
 21
66.3208
 31
0.0
  0
LINE
  8
0
 62
     0
 10
249.156
 20
66.3208
 30
0.0
 11
249.512
 21
65.6237
 31
0.0
  0
LINE
  8
0
 62
     0
 10
249.512
 20
65.6237
 30
0.0
 11
250.064
 21
65.0709
 31
0.0
  0
LINE
  8
0
 62
     0
 10
250.064
 20
65.0709
 30
0.0
 11
250.762
 21
64.7153
 31
0.0
  0
LINE
  8
0
 62
     0
 10
250.762
 20
64.7153
 30
0.0
 11
251.532
 21
64.5929
 31
0.0
  0
LINE
  8
0
 62
     0
 10
251.532
 20
64.5929
 30
0.0
 11
252.305
 21
64.7153
 31
0.0
  0
LINE
  8
0
 62
     0
 10
252.305
 20
64.7153
 30
0.0
 11
253.002
 21
65.0709
 31
0.0
  0
LINE
  8
0
 62
     0
 10
253.002
 20
65.0709
 30
0.0
 11
253.555
 21
65.6237
 31
0.0
  0
LINE
  8
0
 62
     0
 10
253.555
 20
65.6237
 30
0.0
 11
253.91
 21
66.3208
 31
0.0
  0
LINE
  8
0
 62
     0
 10
253.91
 20
66.3208
 30
0.0
 11
254.033
 21
67.0927
 31
0.0
  0
LINE
  8
0
 62
     0
 10
254.033
 20
67.0927
 30
0.0
 11
253.91
 21
67.8656
 31
0.0
  0
LINE
  8
0
 62
     0
 10
253.91
 20
67.8656
 30
0.0
 11
253.555
 21
68.5631
 31
0.0
  0
LINE
  8
0
 62
     0
 10
253.555
 20
68.5631
 30
0.0
 11
253.002
 21
69.1155
 31
0.0
  0
LINE
  8
0
 62
     0
 10
253.002
 20
69.1155
 30
0.0
 11
252.305
 21
69.4711
 31
0.0
  0
LINE
  8
0
 62
     0
 10
252.305
 20
69.4711
 30
0.0
 11
251.532
 21
69.5925
 31
0.0
  0
LINE
  8
0
 62
     0
 10
251.532
 20
69.5925
 30
0.0
 11
250.762
 21
69.4711
 31
0.0
  0
LINE
  8
0
 62
     0
 10
2.43086
 20
92.7929
 30
0.0
 11
16.4317
 21
92.7929
 31
0.0
  0
LINE
  8
0
 62
     0
 10
16.4317
 20
92.7929
 30
0.0
 11
16.4317
 21
78.7936
 31
0.0
  0
LINE
  8
0
 62
     0
 10
16.4317
 20
78.7936
 30
0.0
 11
2.43086
 21
78.7936
 31
0.0
  0
LINE
  8
0
 62
     0
 10
2.43086
 20
78.7936
 30
0.0
 11
2.43086
 21
92.7929
 31
0.0
  0
LINE
  8
0
 62
     0
 10
21.4809
 20
92.7929
 30
0.0
 11
35.4817
 21
92.7929
 31
0.0
  0
LINE
  8
0
 62
     0
 10
35.4817
 20
92.7929
 30
0.0
 11
35.4817
 21
78.7936
 31
0.0
  0
LINE
  8
0
 62
     0
 10
35.4817
 20
78.7936
 30
0.0
 11
21.4809
 21
78.7936
 31
0.0
  0
LINE
  8
0
 62
     0
 10
21.4809
 20
78.7936
 30
0.0
 11
21.4809
 21
92.7929
 31
0.0
  0
LINE
  8
0
 62
     0
 10
40.531
 20
92.7929
 30
0.0
 11
54.5317
 21
92.7929
 31
0.0
  0
LINE
  8
0
 62
     0
 10
54.5317
 20
92.7929
 30
0.0
 11
54.5317
 21
78.7936
 31
0.0
  0
LINE
  8
0
 62
     0
 10
54.5317
 20
78.7936
 30
0.0
 11
40.531
 21
78.7936
 31
0.0
  0
LINE
  8
0
 62
     0
 10
40.531
 20
78.7936
 30
0.0
 11
40.531
 21
92.7929
 31
0.0
  0
LINE
  8
0
 62
     0
 10
59.581
 20
92.7929
 30
0.0
 11
73.5803
 21
92.7929
 31
0.0
  0
LINE
  8
0
 62
     0
 10
73.5803
 20
92.7929
 30
0.0
 11
73.5803
 21
78.7936
 31
0.0
  0
LINE
  8
0
 62
     0
 10
73.5803
 20
78.7936
 30
0.0
 11
59.581
 21
78.7936
 31
0.0
  0
LINE
  8
0
 62
     0
 10
59.581
 20
78.7936
 30
0.0
 11
59.581
 21
92.7929
 31
0.0
  0
LINE
  8
0
 62
     0
 10
78.631
 20
92.7929
 30
0.0
 11
92.6317
 21
92.7929
 31
0.0
  0
LINE
  8
0
 62
     0
 10
92.6317
 20
92.7929
 30
0.0
 11
92.6317
 21
78.7936
 31
0.0
  0
LINE
  8
0
 62
     0
 10
92.6317
 20
78.7936
 30
0.0
 11
78.631
 21
78.7936
 31
0.0
  0
LINE
  8
0
 62
     0
 10
78.631
 20
78.7936
 30
0.0
 11
78.631
 21
92.7929
 31
0.0
  0
LINE
  8
0
 62
     0
 10
97.681
 20
92.7929
 30
0.0
 11
111.682
 21
92.7929
 31
0.0
  0
LINE
  8
0
 62
     0
 10
111.682
 20
92.7929
 30
0.0
 11
111.682
 21
78.7936
 31
0.0
  0
LINE
  8
0
 62
     0
 10
111.682
 20
78.7936
 30
0.0
 11
97.681
 21
78.7936
 31
0.0
  0
LINE
  8
0
 62
     0
 10
97.681
 20
78.7936
 30
0.0
 11
97.681
 21
92.7929
 31
0.0
  0
LINE
  8
0
 62
     0
 10
116.731
 20
92.7929
 30
0.0
 11
130.732
 21
92.7929
 31
0.0
  0
LINE
  8
0
 62
     0
 10
130.732
 20
92.7929
 30
0.0
 11
130.732
 21
78.7936
 31
0.0
  0
LINE
  8
0
 62
     0
 10
130.732
 20
78.7936
 30
0.0
 11
116.731
 21
78.7936
 31
0.0
  0
LINE
  8
0
 62
     0
 10
116.731
 20
78.7936
 30
0.0
 11
116.731
 21
92.7929
 31
0.0
  0
LINE
  8
0
 62
     0
 10
135.781
 20
92.7929
 30
0.0
 11
149.782
 21
92.7929
 31
0.0
  0
LINE
  8
0
 62
     0
 10
149.782
 20
92.7929
 30
0.0
 11
149.782
 21
78.7936
 31
0.0
  0
LINE
  8
0
 62
     0
 10
149.782
 20
78.7936
 30
0.0
 11
135.781
 21
78.7936
 31
0.0
  0
LINE
  8
0
 62
     0
 10
135.781
 20
78.7936
 30
0.0
 11
135.781
 21
92.7929
 31
0.0
  0
ENDSEC
  0
EOF
